<?xml version="1.0" encoding="UTF-8" standalone="no"?>
<svg width="1016mm" height="1016mm"
 viewBox="0 0 8000 8000"
 xmlns="http://www.w3.org/2000/svg" xmlns:xlink="http://www.w3.org/1999/xlink"  version="1.2" baseProfile="tiny">
<title>AprilTags, ID from 0 to 0</title>
<desc>Generated with Qt</desc>
<defs>
</defs>
<g fill="none" stroke="black" stroke-width="1" fill-rule="evenodd" stroke-linecap="square" stroke-linejoin="bevel" >

<g fill="#ffffff" fill-opacity="1" stroke="none" transform="matrix(1,0,0,1,0,0)"
font-family="Ubuntu" font-size="30.5556" font-weight="400" font-style="normal" 
>
<rect x="0" y="0" width="8000" height="8000"/>
</g>

<g fill="none" stroke="#000000" stroke-opacity="1" stroke-width="1" stroke-linecap="square" stroke-linejoin="bevel" transform="matrix(1,0,0,1,0,0)"
font-family="Ubuntu" font-size="30.5556" font-weight="400" font-style="normal" 
>
</g>

<g fill="#000000" fill-opacity="1" stroke="none" transform="matrix(1,0,0,1,1500,1500)"
font-family="Ubuntu" font-size="30.5556" font-weight="400" font-style="normal" 
>
<rect x="0" y="0" width="5000" height="5000"/>
</g>

<g fill="#ffffff" fill-opacity="1" stroke="none" transform="matrix(1,0,0,1,2500,2500)"
font-family="Ubuntu" font-size="30.5556" font-weight="400" font-style="normal" 
>
<rect x="0" y="0" width="3000" height="3000"/>
</g>

<g fill="#ffffff" fill-opacity="1" stroke="none" transform="matrix(1,0,0,1,2500,2500)"
font-family="Ubuntu" font-size="30.5556" font-weight="400" font-style="normal" 
>
<rect x="0" y="0" width="500" height="500"/>
</g>

<g fill="#ffffff" fill-opacity="1" stroke="none" transform="matrix(1,0,0,1,2500,2500)"
font-family="Ubuntu" font-size="30.5556" font-weight="400" font-style="normal" 
>
<rect x="500" y="0" width="500" height="500"/>
</g>

<g fill="#000000" fill-opacity="1" stroke="none" transform="matrix(1,0,0,1,2500,2500)"
font-family="Ubuntu" font-size="30.5556" font-weight="400" font-style="normal" 
>
<rect x="1000" y="0" width="500" height="500"/>
</g>

<g fill="#ffffff" fill-opacity="1" stroke="none" transform="matrix(1,0,0,1,2500,2500)"
font-family="Ubuntu" font-size="30.5556" font-weight="400" font-style="normal" 
>
<rect x="1500" y="0" width="500" height="500"/>
</g>

<g fill="#000000" fill-opacity="1" stroke="none" transform="matrix(1,0,0,1,2500,2500)"
font-family="Ubuntu" font-size="30.5556" font-weight="400" font-style="normal" 
>
<rect x="2000" y="0" width="500" height="500"/>
</g>

<g fill="#ffffff" fill-opacity="1" stroke="none" transform="matrix(1,0,0,1,2500,2500)"
font-family="Ubuntu" font-size="30.5556" font-weight="400" font-style="normal" 
>
<rect x="2500" y="0" width="500" height="500"/>
</g>

<g fill="#000000" fill-opacity="1" stroke="none" transform="matrix(1,0,0,1,2500,2500)"
font-family="Ubuntu" font-size="30.5556" font-weight="400" font-style="normal" 
>
<rect x="0" y="500" width="500" height="500"/>
</g>

<g fill="#ffffff" fill-opacity="1" stroke="none" transform="matrix(1,0,0,1,2500,2500)"
font-family="Ubuntu" font-size="30.5556" font-weight="400" font-style="normal" 
>
<rect x="500" y="500" width="500" height="500"/>
</g>

<g fill="#ffffff" fill-opacity="1" stroke="none" transform="matrix(1,0,0,1,2500,2500)"
font-family="Ubuntu" font-size="30.5556" font-weight="400" font-style="normal" 
>
<rect x="1000" y="500" width="500" height="500"/>
</g>

<g fill="#ffffff" fill-opacity="1" stroke="none" transform="matrix(1,0,0,1,2500,2500)"
font-family="Ubuntu" font-size="30.5556" font-weight="400" font-style="normal" 
>
<rect x="1500" y="500" width="500" height="500"/>
</g>

<g fill="#000000" fill-opacity="1" stroke="none" transform="matrix(1,0,0,1,2500,2500)"
font-family="Ubuntu" font-size="30.5556" font-weight="400" font-style="normal" 
>
<rect x="2000" y="500" width="500" height="500"/>
</g>

<g fill="#ffffff" fill-opacity="1" stroke="none" transform="matrix(1,0,0,1,2500,2500)"
font-family="Ubuntu" font-size="30.5556" font-weight="400" font-style="normal" 
>
<rect x="2500" y="500" width="500" height="500"/>
</g>

<g fill="#000000" fill-opacity="1" stroke="none" transform="matrix(1,0,0,1,2500,2500)"
font-family="Ubuntu" font-size="30.5556" font-weight="400" font-style="normal" 
>
<rect x="0" y="1000" width="500" height="500"/>
</g>

<g fill="#ffffff" fill-opacity="1" stroke="none" transform="matrix(1,0,0,1,2500,2500)"
font-family="Ubuntu" font-size="30.5556" font-weight="400" font-style="normal" 
>
<rect x="500" y="1000" width="500" height="500"/>
</g>

<g fill="#ffffff" fill-opacity="1" stroke="none" transform="matrix(1,0,0,1,2500,2500)"
font-family="Ubuntu" font-size="30.5556" font-weight="400" font-style="normal" 
>
<rect x="1000" y="1000" width="500" height="500"/>
</g>

<g fill="#000000" fill-opacity="1" stroke="none" transform="matrix(1,0,0,1,2500,2500)"
font-family="Ubuntu" font-size="30.5556" font-weight="400" font-style="normal" 
>
<rect x="1500" y="1000" width="500" height="500"/>
</g>

<g fill="#000000" fill-opacity="1" stroke="none" transform="matrix(1,0,0,1,2500,2500)"
font-family="Ubuntu" font-size="30.5556" font-weight="400" font-style="normal" 
>
<rect x="2000" y="1000" width="500" height="500"/>
</g>

<g fill="#000000" fill-opacity="1" stroke="none" transform="matrix(1,0,0,1,2500,2500)"
font-family="Ubuntu" font-size="30.5556" font-weight="400" font-style="normal" 
>
<rect x="2500" y="1000" width="500" height="500"/>
</g>

<g fill="#ffffff" fill-opacity="1" stroke="none" transform="matrix(1,0,0,1,2500,2500)"
font-family="Ubuntu" font-size="30.5556" font-weight="400" font-style="normal" 
>
<rect x="0" y="1500" width="500" height="500"/>
</g>

<g fill="#000000" fill-opacity="1" stroke="none" transform="matrix(1,0,0,1,2500,2500)"
font-family="Ubuntu" font-size="30.5556" font-weight="400" font-style="normal" 
>
<rect x="500" y="1500" width="500" height="500"/>
</g>

<g fill="#ffffff" fill-opacity="1" stroke="none" transform="matrix(1,0,0,1,2500,2500)"
font-family="Ubuntu" font-size="30.5556" font-weight="400" font-style="normal" 
>
<rect x="1000" y="1500" width="500" height="500"/>
</g>

<g fill="#000000" fill-opacity="1" stroke="none" transform="matrix(1,0,0,1,2500,2500)"
font-family="Ubuntu" font-size="30.5556" font-weight="400" font-style="normal" 
>
<rect x="1500" y="1500" width="500" height="500"/>
</g>

<g fill="#000000" fill-opacity="1" stroke="none" transform="matrix(1,0,0,1,2500,2500)"
font-family="Ubuntu" font-size="30.5556" font-weight="400" font-style="normal" 
>
<rect x="2000" y="1500" width="500" height="500"/>
</g>

<g fill="#000000" fill-opacity="1" stroke="none" transform="matrix(1,0,0,1,2500,2500)"
font-family="Ubuntu" font-size="30.5556" font-weight="400" font-style="normal" 
>
<rect x="2500" y="1500" width="500" height="500"/>
</g>

<g fill="#000000" fill-opacity="1" stroke="none" transform="matrix(1,0,0,1,2500,2500)"
font-family="Ubuntu" font-size="30.5556" font-weight="400" font-style="normal" 
>
<rect x="0" y="2000" width="500" height="500"/>
</g>

<g fill="#ffffff" fill-opacity="1" stroke="none" transform="matrix(1,0,0,1,2500,2500)"
font-family="Ubuntu" font-size="30.5556" font-weight="400" font-style="normal" 
>
<rect x="500" y="2000" width="500" height="500"/>
</g>

<g fill="#000000" fill-opacity="1" stroke="none" transform="matrix(1,0,0,1,2500,2500)"
font-family="Ubuntu" font-size="30.5556" font-weight="400" font-style="normal" 
>
<rect x="1000" y="2000" width="500" height="500"/>
</g>

<g fill="#ffffff" fill-opacity="1" stroke="none" transform="matrix(1,0,0,1,2500,2500)"
font-family="Ubuntu" font-size="30.5556" font-weight="400" font-style="normal" 
>
<rect x="1500" y="2000" width="500" height="500"/>
</g>

<g fill="#ffffff" fill-opacity="1" stroke="none" transform="matrix(1,0,0,1,2500,2500)"
font-family="Ubuntu" font-size="30.5556" font-weight="400" font-style="normal" 
>
<rect x="2000" y="2000" width="500" height="500"/>
</g>

<g fill="#000000" fill-opacity="1" stroke="none" transform="matrix(1,0,0,1,2500,2500)"
font-family="Ubuntu" font-size="30.5556" font-weight="400" font-style="normal" 
>
<rect x="2500" y="2000" width="500" height="500"/>
</g>

<g fill="#000000" fill-opacity="1" stroke="none" transform="matrix(1,0,0,1,2500,2500)"
font-family="Ubuntu" font-size="30.5556" font-weight="400" font-style="normal" 
>
<rect x="0" y="2500" width="500" height="500"/>
</g>

<g fill="#000000" fill-opacity="1" stroke="none" transform="matrix(1,0,0,1,2500,2500)"
font-family="Ubuntu" font-size="30.5556" font-weight="400" font-style="normal" 
>
<rect x="500" y="2500" width="500" height="500"/>
</g>

<g fill="#000000" fill-opacity="1" stroke="none" transform="matrix(1,0,0,1,2500,2500)"
font-family="Ubuntu" font-size="30.5556" font-weight="400" font-style="normal" 
>
<rect x="1000" y="2500" width="500" height="500"/>
</g>

<g fill="#ffffff" fill-opacity="1" stroke="none" transform="matrix(1,0,0,1,2500,2500)"
font-family="Ubuntu" font-size="30.5556" font-weight="400" font-style="normal" 
>
<rect x="1500" y="2500" width="500" height="500"/>
</g>

<g fill="#000000" fill-opacity="1" stroke="none" transform="matrix(1,0,0,1,2500,2500)"
font-family="Ubuntu" font-size="30.5556" font-weight="400" font-style="normal" 
>
<rect x="2000" y="2500" width="500" height="500"/>
</g>

<g fill="#000000" fill-opacity="1" stroke="none" transform="matrix(1,0,0,1,2500,2500)"
font-family="Ubuntu" font-size="30.5556" font-weight="400" font-style="normal" 
>
<rect x="2500" y="2500" width="500" height="500"/>
</g>

<g fill="none" stroke="#000000" stroke-opacity="1" stroke-width="1" stroke-linecap="square" stroke-linejoin="bevel" transform="matrix(1,0,0,1,0,0)"
font-family="Ubuntu" font-size="30.5556" font-weight="400" font-style="normal" 
>
</g>

<g fill="none" stroke="#000000" stroke-opacity="1" stroke-width="1" stroke-linecap="square" stroke-linejoin="bevel" transform="matrix(1,0,0,1,0,0)"
font-family="Ubuntu" font-size="30.5556" font-weight="400" font-style="normal" 
>
</g>

<g fill="#000000" fill-opacity="1" stroke="none" transform="matrix(1,0,0,1,0,0)"
font-family="Ubuntu" font-size="30.5556" font-weight="400" font-style="normal" 
>
<rect x="0" y="0" width="1500" height="1500"/>
</g>

<g fill="#000000" fill-opacity="1" stroke="none" transform="matrix(1,0,0,1,0,0)"
font-family="Ubuntu" font-size="30.5556" font-weight="400" font-style="normal" 
>
<rect x="0" y="6500" width="1500" height="1500"/>
</g>

<g fill="#000000" fill-opacity="1" stroke="none" transform="matrix(1,0,0,1,0,0)"
font-family="Ubuntu" font-size="30.5556" font-weight="400" font-style="normal" 
>
<rect x="6500" y="0" width="1500" height="1500"/>
</g>

<g fill="#000000" fill-opacity="1" stroke="none" transform="matrix(1,0,0,1,0,0)"
font-family="Ubuntu" font-size="30.5556" font-weight="400" font-style="normal" 
>
<rect x="6500" y="6500" width="1500" height="1500"/>
</g>

<g fill="none" stroke="#000000" stroke-opacity="1" stroke-width="1" stroke-linecap="square" stroke-linejoin="bevel" transform="matrix(1,0,0,1,0,0)"
font-family="Ubuntu" font-size="30.5556" font-weight="400" font-style="normal" 
>
</g>

<g fill="none" stroke="#000000" stroke-opacity="1" stroke-width="1" stroke-linecap="square" stroke-linejoin="bevel" transform="matrix(1,0,0,1,0,8000)"
font-family="Monospace" font-size="30.5556" font-weight="400" font-style="normal" 
>
<text fill="#000000" fill-opacity="1" stroke="none" xml:space="preserve" x="2750" y="0" font-family="Monospace" font-size="30.5556" font-weight="400" font-style="normal" 
 >ID:0-0</text>
</g>

<g fill="none" stroke="#000000" stroke-opacity="1" stroke-width="1" stroke-linecap="square" stroke-linejoin="bevel" transform="matrix(1,0,0,1,0,0)"
font-family="Ubuntu" font-size="30.5556" font-weight="400" font-style="normal" 
>
</g>

<g fill="#ff0000" fill-opacity="1" stroke="#ff0000" stroke-opacity="1" stroke-width="125" stroke-linecap="square" stroke-linejoin="bevel" transform="matrix(1,0,0,1,0,8000)"
font-family="Monospace" font-size="30.5556" font-weight="400" font-style="normal" 
>
<polyline fill="none" vector-effect="none" points="0,0 2500,0 " />
<path vector-effect="none" fill-rule="evenodd" d="M2500,0 L2000,106.278 L2000,-106.278 L2500,0"/>
<text fill="#ff0000" fill-opacity="1" stroke="none" xml:space="preserve" x="2750" y="0" font-family="Monospace" font-size="30.5556" font-weight="400" font-style="normal" 
 >x</text>
</g>

<g fill="#0000ff" fill-opacity="1" stroke="#0000ff" stroke-opacity="1" stroke-width="125" stroke-linecap="square" stroke-linejoin="bevel" transform="matrix(1,0,0,1,0,8000)"
font-family="Monospace" font-size="30.5556" font-weight="400" font-style="normal" 
>
<polyline fill="none" vector-effect="none" points="0,0 0,-2500 " />
<path vector-effect="none" fill-rule="evenodd" d="M0,-2500 L106.278,-2000 L-106.278,-2000 L0,-2500"/>
<text fill="#0000ff" fill-opacity="1" stroke="none" xml:space="preserve" x="0" y="-2750" font-family="Monospace" font-size="30.5556" font-weight="400" font-style="normal" 
 >y</text>
</g>

<g fill="none" stroke="#000000" stroke-opacity="1" stroke-width="1" stroke-linecap="square" stroke-linejoin="bevel" transform="matrix(1,0,0,1,0,0)"
font-family="Ubuntu" font-size="30.5556" font-weight="400" font-style="normal" 
>
</g>
</g>
</svg>
