<?xml version="1.0" encoding="UTF-8" standalone="no"?>
<svg width="188mm" height="188mm"
 viewBox="0 0 1880 1880"
 xmlns="http://www.w3.org/2000/svg" xmlns:xlink="http://www.w3.org/1999/xlink"  version="1.2" baseProfile="tiny">
<title>AprilTags, ID from 0 to 0</title>
<desc>Generated with Qt</desc>
<defs>
</defs>
<g fill="none" stroke="black" stroke-width="1" fill-rule="evenodd" stroke-linecap="square" stroke-linejoin="bevel" >

<g fill="#ffffff" fill-opacity="1" stroke="none" transform="matrix(1,0,0,1,0,0)"
font-family="Ubuntu" font-size="38.8056" font-weight="400" font-style="normal" 
>
<rect x="0" y="0" width="1880" height="1880"/>
</g>

<g fill="none" stroke="#000000" stroke-opacity="1" stroke-width="1" stroke-linecap="square" stroke-linejoin="bevel" transform="matrix(1,0,0,1,0,0)"
font-family="Ubuntu" font-size="38.8056" font-weight="400" font-style="normal" 
>
</g>

<g fill="#000000" fill-opacity="1" stroke="none" transform="matrix(1,0,0,1,300,300)"
font-family="Ubuntu" font-size="38.8056" font-weight="400" font-style="normal" 
>
<rect x="0" y="0" width="1280" height="1280"/>
</g>

<g fill="#ffffff" fill-opacity="1" stroke="none" transform="matrix(1,0,0,1,460,460)"
font-family="Ubuntu" font-size="38.8056" font-weight="400" font-style="normal" 
>
<rect x="0" y="0" width="960" height="960"/>
</g>

<g fill="#ffffff" fill-opacity="1" stroke="none" transform="matrix(1,0,0,1,460,460)"
font-family="Ubuntu" font-size="38.8056" font-weight="400" font-style="normal" 
>
<rect x="0" y="0" width="160" height="160"/>
</g>

<g fill="#ffffff" fill-opacity="1" stroke="none" transform="matrix(1,0,0,1,460,460)"
font-family="Ubuntu" font-size="38.8056" font-weight="400" font-style="normal" 
>
<rect x="160" y="0" width="160" height="160"/>
</g>

<g fill="#000000" fill-opacity="1" stroke="none" transform="matrix(1,0,0,1,460,460)"
font-family="Ubuntu" font-size="38.8056" font-weight="400" font-style="normal" 
>
<rect x="320" y="0" width="160" height="160"/>
</g>

<g fill="#ffffff" fill-opacity="1" stroke="none" transform="matrix(1,0,0,1,460,460)"
font-family="Ubuntu" font-size="38.8056" font-weight="400" font-style="normal" 
>
<rect x="480" y="0" width="160" height="160"/>
</g>

<g fill="#000000" fill-opacity="1" stroke="none" transform="matrix(1,0,0,1,460,460)"
font-family="Ubuntu" font-size="38.8056" font-weight="400" font-style="normal" 
>
<rect x="640" y="0" width="160" height="160"/>
</g>

<g fill="#ffffff" fill-opacity="1" stroke="none" transform="matrix(1,0,0,1,460,460)"
font-family="Ubuntu" font-size="38.8056" font-weight="400" font-style="normal" 
>
<rect x="800" y="0" width="160" height="160"/>
</g>

<g fill="#000000" fill-opacity="1" stroke="none" transform="matrix(1,0,0,1,460,460)"
font-family="Ubuntu" font-size="38.8056" font-weight="400" font-style="normal" 
>
<rect x="0" y="160" width="160" height="160"/>
</g>

<g fill="#ffffff" fill-opacity="1" stroke="none" transform="matrix(1,0,0,1,460,460)"
font-family="Ubuntu" font-size="38.8056" font-weight="400" font-style="normal" 
>
<rect x="160" y="160" width="160" height="160"/>
</g>

<g fill="#ffffff" fill-opacity="1" stroke="none" transform="matrix(1,0,0,1,460,460)"
font-family="Ubuntu" font-size="38.8056" font-weight="400" font-style="normal" 
>
<rect x="320" y="160" width="160" height="160"/>
</g>

<g fill="#ffffff" fill-opacity="1" stroke="none" transform="matrix(1,0,0,1,460,460)"
font-family="Ubuntu" font-size="38.8056" font-weight="400" font-style="normal" 
>
<rect x="480" y="160" width="160" height="160"/>
</g>

<g fill="#000000" fill-opacity="1" stroke="none" transform="matrix(1,0,0,1,460,460)"
font-family="Ubuntu" font-size="38.8056" font-weight="400" font-style="normal" 
>
<rect x="640" y="160" width="160" height="160"/>
</g>

<g fill="#ffffff" fill-opacity="1" stroke="none" transform="matrix(1,0,0,1,460,460)"
font-family="Ubuntu" font-size="38.8056" font-weight="400" font-style="normal" 
>
<rect x="800" y="160" width="160" height="160"/>
</g>

<g fill="#000000" fill-opacity="1" stroke="none" transform="matrix(1,0,0,1,460,460)"
font-family="Ubuntu" font-size="38.8056" font-weight="400" font-style="normal" 
>
<rect x="0" y="320" width="160" height="160"/>
</g>

<g fill="#ffffff" fill-opacity="1" stroke="none" transform="matrix(1,0,0,1,460,460)"
font-family="Ubuntu" font-size="38.8056" font-weight="400" font-style="normal" 
>
<rect x="160" y="320" width="160" height="160"/>
</g>

<g fill="#ffffff" fill-opacity="1" stroke="none" transform="matrix(1,0,0,1,460,460)"
font-family="Ubuntu" font-size="38.8056" font-weight="400" font-style="normal" 
>
<rect x="320" y="320" width="160" height="160"/>
</g>

<g fill="#000000" fill-opacity="1" stroke="none" transform="matrix(1,0,0,1,460,460)"
font-family="Ubuntu" font-size="38.8056" font-weight="400" font-style="normal" 
>
<rect x="480" y="320" width="160" height="160"/>
</g>

<g fill="#000000" fill-opacity="1" stroke="none" transform="matrix(1,0,0,1,460,460)"
font-family="Ubuntu" font-size="38.8056" font-weight="400" font-style="normal" 
>
<rect x="640" y="320" width="160" height="160"/>
</g>

<g fill="#000000" fill-opacity="1" stroke="none" transform="matrix(1,0,0,1,460,460)"
font-family="Ubuntu" font-size="38.8056" font-weight="400" font-style="normal" 
>
<rect x="800" y="320" width="160" height="160"/>
</g>

<g fill="#ffffff" fill-opacity="1" stroke="none" transform="matrix(1,0,0,1,460,460)"
font-family="Ubuntu" font-size="38.8056" font-weight="400" font-style="normal" 
>
<rect x="0" y="480" width="160" height="160"/>
</g>

<g fill="#000000" fill-opacity="1" stroke="none" transform="matrix(1,0,0,1,460,460)"
font-family="Ubuntu" font-size="38.8056" font-weight="400" font-style="normal" 
>
<rect x="160" y="480" width="160" height="160"/>
</g>

<g fill="#ffffff" fill-opacity="1" stroke="none" transform="matrix(1,0,0,1,460,460)"
font-family="Ubuntu" font-size="38.8056" font-weight="400" font-style="normal" 
>
<rect x="320" y="480" width="160" height="160"/>
</g>

<g fill="#000000" fill-opacity="1" stroke="none" transform="matrix(1,0,0,1,460,460)"
font-family="Ubuntu" font-size="38.8056" font-weight="400" font-style="normal" 
>
<rect x="480" y="480" width="160" height="160"/>
</g>

<g fill="#000000" fill-opacity="1" stroke="none" transform="matrix(1,0,0,1,460,460)"
font-family="Ubuntu" font-size="38.8056" font-weight="400" font-style="normal" 
>
<rect x="640" y="480" width="160" height="160"/>
</g>

<g fill="#000000" fill-opacity="1" stroke="none" transform="matrix(1,0,0,1,460,460)"
font-family="Ubuntu" font-size="38.8056" font-weight="400" font-style="normal" 
>
<rect x="800" y="480" width="160" height="160"/>
</g>

<g fill="#000000" fill-opacity="1" stroke="none" transform="matrix(1,0,0,1,460,460)"
font-family="Ubuntu" font-size="38.8056" font-weight="400" font-style="normal" 
>
<rect x="0" y="640" width="160" height="160"/>
</g>

<g fill="#ffffff" fill-opacity="1" stroke="none" transform="matrix(1,0,0,1,460,460)"
font-family="Ubuntu" font-size="38.8056" font-weight="400" font-style="normal" 
>
<rect x="160" y="640" width="160" height="160"/>
</g>

<g fill="#000000" fill-opacity="1" stroke="none" transform="matrix(1,0,0,1,460,460)"
font-family="Ubuntu" font-size="38.8056" font-weight="400" font-style="normal" 
>
<rect x="320" y="640" width="160" height="160"/>
</g>

<g fill="#ffffff" fill-opacity="1" stroke="none" transform="matrix(1,0,0,1,460,460)"
font-family="Ubuntu" font-size="38.8056" font-weight="400" font-style="normal" 
>
<rect x="480" y="640" width="160" height="160"/>
</g>

<g fill="#ffffff" fill-opacity="1" stroke="none" transform="matrix(1,0,0,1,460,460)"
font-family="Ubuntu" font-size="38.8056" font-weight="400" font-style="normal" 
>
<rect x="640" y="640" width="160" height="160"/>
</g>

<g fill="#000000" fill-opacity="1" stroke="none" transform="matrix(1,0,0,1,460,460)"
font-family="Ubuntu" font-size="38.8056" font-weight="400" font-style="normal" 
>
<rect x="800" y="640" width="160" height="160"/>
</g>

<g fill="#000000" fill-opacity="1" stroke="none" transform="matrix(1,0,0,1,460,460)"
font-family="Ubuntu" font-size="38.8056" font-weight="400" font-style="normal" 
>
<rect x="0" y="800" width="160" height="160"/>
</g>

<g fill="#000000" fill-opacity="1" stroke="none" transform="matrix(1,0,0,1,460,460)"
font-family="Ubuntu" font-size="38.8056" font-weight="400" font-style="normal" 
>
<rect x="160" y="800" width="160" height="160"/>
</g>

<g fill="#000000" fill-opacity="1" stroke="none" transform="matrix(1,0,0,1,460,460)"
font-family="Ubuntu" font-size="38.8056" font-weight="400" font-style="normal" 
>
<rect x="320" y="800" width="160" height="160"/>
</g>

<g fill="#ffffff" fill-opacity="1" stroke="none" transform="matrix(1,0,0,1,460,460)"
font-family="Ubuntu" font-size="38.8056" font-weight="400" font-style="normal" 
>
<rect x="480" y="800" width="160" height="160"/>
</g>

<g fill="#000000" fill-opacity="1" stroke="none" transform="matrix(1,0,0,1,460,460)"
font-family="Ubuntu" font-size="38.8056" font-weight="400" font-style="normal" 
>
<rect x="640" y="800" width="160" height="160"/>
</g>

<g fill="#000000" fill-opacity="1" stroke="none" transform="matrix(1,0,0,1,460,460)"
font-family="Ubuntu" font-size="38.8056" font-weight="400" font-style="normal" 
>
<rect x="800" y="800" width="160" height="160"/>
</g>

<g fill="none" stroke="#000000" stroke-opacity="1" stroke-width="1" stroke-linecap="square" stroke-linejoin="bevel" transform="matrix(1,0,0,1,0,0)"
font-family="Ubuntu" font-size="38.8056" font-weight="400" font-style="normal" 
>
</g>

<g fill="none" stroke="#000000" stroke-opacity="1" stroke-width="1" stroke-linecap="square" stroke-linejoin="bevel" transform="matrix(1,0,0,1,0,0)"
font-family="Ubuntu" font-size="38.8056" font-weight="400" font-style="normal" 
>
</g>

<g fill="#000000" fill-opacity="1" stroke="none" transform="matrix(1,0,0,1,0,0)"
font-family="Ubuntu" font-size="38.8056" font-weight="400" font-style="normal" 
>
<rect x="300" y="300" width="0" height="0"/>
</g>

<g fill="#000000" fill-opacity="1" stroke="none" transform="matrix(1,0,0,1,0,0)"
font-family="Ubuntu" font-size="38.8056" font-weight="400" font-style="normal" 
>
<rect x="300" y="1580" width="0" height="0"/>
</g>

<g fill="#000000" fill-opacity="1" stroke="none" transform="matrix(1,0,0,1,0,0)"
font-family="Ubuntu" font-size="38.8056" font-weight="400" font-style="normal" 
>
<rect x="1580" y="300" width="0" height="0"/>
</g>

<g fill="#000000" fill-opacity="1" stroke="none" transform="matrix(1,0,0,1,0,0)"
font-family="Ubuntu" font-size="38.8056" font-weight="400" font-style="normal" 
>
<rect x="1580" y="1580" width="0" height="0"/>
</g>

<g fill="none" stroke="#000000" stroke-opacity="1" stroke-width="1" stroke-linecap="square" stroke-linejoin="bevel" transform="matrix(1,0,0,1,0,0)"
font-family="Ubuntu" font-size="38.8056" font-weight="400" font-style="normal" 
>
</g>

<g fill="none" stroke="#000000" stroke-opacity="1" stroke-width="1" stroke-linecap="square" stroke-linejoin="bevel" transform="matrix(1,0,0,1,150,1730)"
font-family="Monospace" font-size="150" font-weight="400" font-style="normal" 
>
<text fill="#000000" fill-opacity="1" stroke="none" xml:space="preserve" x="854" y="75" font-family="Monospace" font-size="150" font-weight="400" font-style="normal" 
 >ID:0-0</text>
</g>

<g fill="none" stroke="#000000" stroke-opacity="1" stroke-width="1" stroke-linecap="square" stroke-linejoin="bevel" transform="matrix(1,0,0,1,0,0)"
font-family="Ubuntu" font-size="38.8056" font-weight="400" font-style="normal" 
>
</g>

<g fill="#ff0000" fill-opacity="1" stroke="#ff0000" stroke-opacity="1" stroke-width="40" stroke-linecap="square" stroke-linejoin="bevel" transform="matrix(1,0,0,1,150,1730)"
font-family="Monospace" font-size="150" font-weight="400" font-style="normal" 
>
<polyline fill="none" vector-effect="none" points="0,0 640,0 " />
<path vector-effect="none" fill-rule="evenodd" d="M640,0 L480,34.009 L480,-34.009 L640,0"/>
<text fill="#ff0000" fill-opacity="1" stroke="none" xml:space="preserve" x="704" y="75" font-family="Monospace" font-size="150" font-weight="400" font-style="normal" 
 >x</text>
</g>

<g fill="#0000ff" fill-opacity="1" stroke="#0000ff" stroke-opacity="1" stroke-width="40" stroke-linecap="square" stroke-linejoin="bevel" transform="matrix(1,0,0,1,150,1730)"
font-family="Monospace" font-size="150" font-weight="400" font-style="normal" 
>
<polyline fill="none" vector-effect="none" points="0,0 0,-640 " />
<path vector-effect="none" fill-rule="evenodd" d="M0,-640 L34.009,-480 L-34.009,-480 L0,-640"/>
<text fill="#0000ff" fill-opacity="1" stroke="none" xml:space="preserve" x="-75" y="-704" font-family="Monospace" font-size="150" font-weight="400" font-style="normal" 
 >y</text>
</g>

<g fill="none" stroke="#000000" stroke-opacity="1" stroke-width="1" stroke-linecap="square" stroke-linejoin="bevel" transform="matrix(1,0,0,1,0,0)"
font-family="Ubuntu" font-size="38.8056" font-weight="400" font-style="normal" 
>
</g>
</g>
</svg>
