<?xml version="1.0" encoding="UTF-8" standalone="no"?>
<svg width="203.2mm" height="203.2mm"
 viewBox="0 0 1600 1600"
 xmlns="http://www.w3.org/2000/svg" xmlns:xlink="http://www.w3.org/1999/xlink"  version="1.2" baseProfile="tiny">
<title>AprilTags, ID from 0 to 0</title>
<desc>Generated with Qt</desc>
<defs>
</defs>
<g fill="none" stroke="black" stroke-width="1" fill-rule="evenodd" stroke-linecap="square" stroke-linejoin="bevel" >

<g fill="#ffffff" fill-opacity="1" stroke="none" transform="matrix(1,0,0,1,0,0)"
font-family="Ubuntu" font-size="30.5556" font-weight="400" font-style="normal" 
>
<rect x="0" y="0" width="1600" height="1600"/>
</g>

<g fill="none" stroke="#000000" stroke-opacity="1" stroke-width="1" stroke-linecap="square" stroke-linejoin="bevel" transform="matrix(1,0,0,1,0,0)"
font-family="Ubuntu" font-size="30.5556" font-weight="400" font-style="normal" 
>
</g>

<g fill="#000000" fill-opacity="1" stroke="none" transform="matrix(1,0,0,1,300,300)"
font-family="Ubuntu" font-size="30.5556" font-weight="400" font-style="normal" 
>
<rect x="0" y="0" width="1000" height="1000"/>
</g>

<g fill="#ffffff" fill-opacity="1" stroke="none" transform="matrix(1,0,0,1,500,500)"
font-family="Ubuntu" font-size="30.5556" font-weight="400" font-style="normal" 
>
<rect x="0" y="0" width="600" height="600"/>
</g>

<g fill="#ffffff" fill-opacity="1" stroke="none" transform="matrix(1,0,0,1,500,500)"
font-family="Ubuntu" font-size="30.5556" font-weight="400" font-style="normal" 
>
<rect x="0" y="0" width="100" height="100"/>
</g>

<g fill="#ffffff" fill-opacity="1" stroke="none" transform="matrix(1,0,0,1,500,500)"
font-family="Ubuntu" font-size="30.5556" font-weight="400" font-style="normal" 
>
<rect x="100" y="0" width="100" height="100"/>
</g>

<g fill="#000000" fill-opacity="1" stroke="none" transform="matrix(1,0,0,1,500,500)"
font-family="Ubuntu" font-size="30.5556" font-weight="400" font-style="normal" 
>
<rect x="200" y="0" width="100" height="100"/>
</g>

<g fill="#ffffff" fill-opacity="1" stroke="none" transform="matrix(1,0,0,1,500,500)"
font-family="Ubuntu" font-size="30.5556" font-weight="400" font-style="normal" 
>
<rect x="300" y="0" width="100" height="100"/>
</g>

<g fill="#000000" fill-opacity="1" stroke="none" transform="matrix(1,0,0,1,500,500)"
font-family="Ubuntu" font-size="30.5556" font-weight="400" font-style="normal" 
>
<rect x="400" y="0" width="100" height="100"/>
</g>

<g fill="#ffffff" fill-opacity="1" stroke="none" transform="matrix(1,0,0,1,500,500)"
font-family="Ubuntu" font-size="30.5556" font-weight="400" font-style="normal" 
>
<rect x="500" y="0" width="100" height="100"/>
</g>

<g fill="#000000" fill-opacity="1" stroke="none" transform="matrix(1,0,0,1,500,500)"
font-family="Ubuntu" font-size="30.5556" font-weight="400" font-style="normal" 
>
<rect x="0" y="100" width="100" height="100"/>
</g>

<g fill="#ffffff" fill-opacity="1" stroke="none" transform="matrix(1,0,0,1,500,500)"
font-family="Ubuntu" font-size="30.5556" font-weight="400" font-style="normal" 
>
<rect x="100" y="100" width="100" height="100"/>
</g>

<g fill="#ffffff" fill-opacity="1" stroke="none" transform="matrix(1,0,0,1,500,500)"
font-family="Ubuntu" font-size="30.5556" font-weight="400" font-style="normal" 
>
<rect x="200" y="100" width="100" height="100"/>
</g>

<g fill="#ffffff" fill-opacity="1" stroke="none" transform="matrix(1,0,0,1,500,500)"
font-family="Ubuntu" font-size="30.5556" font-weight="400" font-style="normal" 
>
<rect x="300" y="100" width="100" height="100"/>
</g>

<g fill="#000000" fill-opacity="1" stroke="none" transform="matrix(1,0,0,1,500,500)"
font-family="Ubuntu" font-size="30.5556" font-weight="400" font-style="normal" 
>
<rect x="400" y="100" width="100" height="100"/>
</g>

<g fill="#ffffff" fill-opacity="1" stroke="none" transform="matrix(1,0,0,1,500,500)"
font-family="Ubuntu" font-size="30.5556" font-weight="400" font-style="normal" 
>
<rect x="500" y="100" width="100" height="100"/>
</g>

<g fill="#000000" fill-opacity="1" stroke="none" transform="matrix(1,0,0,1,500,500)"
font-family="Ubuntu" font-size="30.5556" font-weight="400" font-style="normal" 
>
<rect x="0" y="200" width="100" height="100"/>
</g>

<g fill="#ffffff" fill-opacity="1" stroke="none" transform="matrix(1,0,0,1,500,500)"
font-family="Ubuntu" font-size="30.5556" font-weight="400" font-style="normal" 
>
<rect x="100" y="200" width="100" height="100"/>
</g>

<g fill="#ffffff" fill-opacity="1" stroke="none" transform="matrix(1,0,0,1,500,500)"
font-family="Ubuntu" font-size="30.5556" font-weight="400" font-style="normal" 
>
<rect x="200" y="200" width="100" height="100"/>
</g>

<g fill="#000000" fill-opacity="1" stroke="none" transform="matrix(1,0,0,1,500,500)"
font-family="Ubuntu" font-size="30.5556" font-weight="400" font-style="normal" 
>
<rect x="300" y="200" width="100" height="100"/>
</g>

<g fill="#000000" fill-opacity="1" stroke="none" transform="matrix(1,0,0,1,500,500)"
font-family="Ubuntu" font-size="30.5556" font-weight="400" font-style="normal" 
>
<rect x="400" y="200" width="100" height="100"/>
</g>

<g fill="#000000" fill-opacity="1" stroke="none" transform="matrix(1,0,0,1,500,500)"
font-family="Ubuntu" font-size="30.5556" font-weight="400" font-style="normal" 
>
<rect x="500" y="200" width="100" height="100"/>
</g>

<g fill="#ffffff" fill-opacity="1" stroke="none" transform="matrix(1,0,0,1,500,500)"
font-family="Ubuntu" font-size="30.5556" font-weight="400" font-style="normal" 
>
<rect x="0" y="300" width="100" height="100"/>
</g>

<g fill="#000000" fill-opacity="1" stroke="none" transform="matrix(1,0,0,1,500,500)"
font-family="Ubuntu" font-size="30.5556" font-weight="400" font-style="normal" 
>
<rect x="100" y="300" width="100" height="100"/>
</g>

<g fill="#ffffff" fill-opacity="1" stroke="none" transform="matrix(1,0,0,1,500,500)"
font-family="Ubuntu" font-size="30.5556" font-weight="400" font-style="normal" 
>
<rect x="200" y="300" width="100" height="100"/>
</g>

<g fill="#000000" fill-opacity="1" stroke="none" transform="matrix(1,0,0,1,500,500)"
font-family="Ubuntu" font-size="30.5556" font-weight="400" font-style="normal" 
>
<rect x="300" y="300" width="100" height="100"/>
</g>

<g fill="#000000" fill-opacity="1" stroke="none" transform="matrix(1,0,0,1,500,500)"
font-family="Ubuntu" font-size="30.5556" font-weight="400" font-style="normal" 
>
<rect x="400" y="300" width="100" height="100"/>
</g>

<g fill="#000000" fill-opacity="1" stroke="none" transform="matrix(1,0,0,1,500,500)"
font-family="Ubuntu" font-size="30.5556" font-weight="400" font-style="normal" 
>
<rect x="500" y="300" width="100" height="100"/>
</g>

<g fill="#000000" fill-opacity="1" stroke="none" transform="matrix(1,0,0,1,500,500)"
font-family="Ubuntu" font-size="30.5556" font-weight="400" font-style="normal" 
>
<rect x="0" y="400" width="100" height="100"/>
</g>

<g fill="#ffffff" fill-opacity="1" stroke="none" transform="matrix(1,0,0,1,500,500)"
font-family="Ubuntu" font-size="30.5556" font-weight="400" font-style="normal" 
>
<rect x="100" y="400" width="100" height="100"/>
</g>

<g fill="#000000" fill-opacity="1" stroke="none" transform="matrix(1,0,0,1,500,500)"
font-family="Ubuntu" font-size="30.5556" font-weight="400" font-style="normal" 
>
<rect x="200" y="400" width="100" height="100"/>
</g>

<g fill="#ffffff" fill-opacity="1" stroke="none" transform="matrix(1,0,0,1,500,500)"
font-family="Ubuntu" font-size="30.5556" font-weight="400" font-style="normal" 
>
<rect x="300" y="400" width="100" height="100"/>
</g>

<g fill="#ffffff" fill-opacity="1" stroke="none" transform="matrix(1,0,0,1,500,500)"
font-family="Ubuntu" font-size="30.5556" font-weight="400" font-style="normal" 
>
<rect x="400" y="400" width="100" height="100"/>
</g>

<g fill="#000000" fill-opacity="1" stroke="none" transform="matrix(1,0,0,1,500,500)"
font-family="Ubuntu" font-size="30.5556" font-weight="400" font-style="normal" 
>
<rect x="500" y="400" width="100" height="100"/>
</g>

<g fill="#000000" fill-opacity="1" stroke="none" transform="matrix(1,0,0,1,500,500)"
font-family="Ubuntu" font-size="30.5556" font-weight="400" font-style="normal" 
>
<rect x="0" y="500" width="100" height="100"/>
</g>

<g fill="#000000" fill-opacity="1" stroke="none" transform="matrix(1,0,0,1,500,500)"
font-family="Ubuntu" font-size="30.5556" font-weight="400" font-style="normal" 
>
<rect x="100" y="500" width="100" height="100"/>
</g>

<g fill="#000000" fill-opacity="1" stroke="none" transform="matrix(1,0,0,1,500,500)"
font-family="Ubuntu" font-size="30.5556" font-weight="400" font-style="normal" 
>
<rect x="200" y="500" width="100" height="100"/>
</g>

<g fill="#ffffff" fill-opacity="1" stroke="none" transform="matrix(1,0,0,1,500,500)"
font-family="Ubuntu" font-size="30.5556" font-weight="400" font-style="normal" 
>
<rect x="300" y="500" width="100" height="100"/>
</g>

<g fill="#000000" fill-opacity="1" stroke="none" transform="matrix(1,0,0,1,500,500)"
font-family="Ubuntu" font-size="30.5556" font-weight="400" font-style="normal" 
>
<rect x="400" y="500" width="100" height="100"/>
</g>

<g fill="#000000" fill-opacity="1" stroke="none" transform="matrix(1,0,0,1,500,500)"
font-family="Ubuntu" font-size="30.5556" font-weight="400" font-style="normal" 
>
<rect x="500" y="500" width="100" height="100"/>
</g>

<g fill="none" stroke="#000000" stroke-opacity="1" stroke-width="1" stroke-linecap="square" stroke-linejoin="bevel" transform="matrix(1,0,0,1,0,0)"
font-family="Ubuntu" font-size="30.5556" font-weight="400" font-style="normal" 
>
</g>

<g fill="none" stroke="#000000" stroke-opacity="1" stroke-width="1" stroke-linecap="square" stroke-linejoin="bevel" transform="matrix(1,0,0,1,0,0)"
font-family="Ubuntu" font-size="30.5556" font-weight="400" font-style="normal" 
>
</g>

<g fill="#000000" fill-opacity="1" stroke="none" transform="matrix(1,0,0,1,0,0)"
font-family="Ubuntu" font-size="30.5556" font-weight="400" font-style="normal" 
>
<rect x="0" y="0" width="300" height="300"/>
</g>

<g fill="#000000" fill-opacity="1" stroke="none" transform="matrix(1,0,0,1,0,0)"
font-family="Ubuntu" font-size="30.5556" font-weight="400" font-style="normal" 
>
<rect x="0" y="1300" width="300" height="300"/>
</g>

<g fill="#000000" fill-opacity="1" stroke="none" transform="matrix(1,0,0,1,0,0)"
font-family="Ubuntu" font-size="30.5556" font-weight="400" font-style="normal" 
>
<rect x="1300" y="0" width="300" height="300"/>
</g>

<g fill="#000000" fill-opacity="1" stroke="none" transform="matrix(1,0,0,1,0,0)"
font-family="Ubuntu" font-size="30.5556" font-weight="400" font-style="normal" 
>
<rect x="1300" y="1300" width="300" height="300"/>
</g>

<g fill="none" stroke="#000000" stroke-opacity="1" stroke-width="1" stroke-linecap="square" stroke-linejoin="bevel" transform="matrix(1,0,0,1,0,0)"
font-family="Ubuntu" font-size="30.5556" font-weight="400" font-style="normal" 
>
</g>

<g fill="none" stroke="#000000" stroke-opacity="1" stroke-width="1" stroke-linecap="square" stroke-linejoin="bevel" transform="matrix(1,0,0,1,0,1600)"
font-family="Monospace" font-size="30.5556" font-weight="400" font-style="normal" 
>
<text fill="#000000" fill-opacity="1" stroke="none" xml:space="preserve" x="550" y="0" font-family="Monospace" font-size="30.5556" font-weight="400" font-style="normal" 
 >ID:0-0</text>
</g>

<g fill="none" stroke="#000000" stroke-opacity="1" stroke-width="1" stroke-linecap="square" stroke-linejoin="bevel" transform="matrix(1,0,0,1,0,0)"
font-family="Ubuntu" font-size="30.5556" font-weight="400" font-style="normal" 
>
</g>

<g fill="#ff0000" fill-opacity="1" stroke="#ff0000" stroke-opacity="1" stroke-width="25" stroke-linecap="square" stroke-linejoin="bevel" transform="matrix(1,0,0,1,0,1600)"
font-family="Monospace" font-size="30.5556" font-weight="400" font-style="normal" 
>
<polyline fill="none" vector-effect="none" points="0,0 500,0 " />
<path vector-effect="none" fill-rule="evenodd" d="M500,0 L400,21.2556 L400,-21.2556 L500,0"/>
<text fill="#ff0000" fill-opacity="1" stroke="none" xml:space="preserve" x="550" y="0" font-family="Monospace" font-size="30.5556" font-weight="400" font-style="normal" 
 >x</text>
</g>

<g fill="#0000ff" fill-opacity="1" stroke="#0000ff" stroke-opacity="1" stroke-width="25" stroke-linecap="square" stroke-linejoin="bevel" transform="matrix(1,0,0,1,0,1600)"
font-family="Monospace" font-size="30.5556" font-weight="400" font-style="normal" 
>
<polyline fill="none" vector-effect="none" points="0,0 0,-500 " />
<path vector-effect="none" fill-rule="evenodd" d="M0,-500 L21.2556,-400 L-21.2556,-400 L0,-500"/>
<text fill="#0000ff" fill-opacity="1" stroke="none" xml:space="preserve" x="0" y="-550" font-family="Monospace" font-size="30.5556" font-weight="400" font-style="normal" 
 >y</text>
</g>

<g fill="none" stroke="#000000" stroke-opacity="1" stroke-width="1" stroke-linecap="square" stroke-linejoin="bevel" transform="matrix(1,0,0,1,0,0)"
font-family="Ubuntu" font-size="30.5556" font-weight="400" font-style="normal" 
>
</g>
</g>
</svg>
